HIERARCHY
ROOT Hips
{
  OFFSET 0 0.240689 0
  CHANNELS 6 Xposition Yposition Zposition Zrotation Xrotation Yrotation
  JOINT Bip01_Spine0
  {
    OFFSET 0 -24.7459 49.7988
    CHANNELS 6 Xposition Yposition Zposition Zrotation Xrotation Yrotation
    JOINT Bip01_Pelvis
    {
      OFFSET 0 0 0
      CHANNELS 6 Xposition Yposition Zposition Zrotation Xrotation Yrotation
      JOINT Bip01_Spine0_Tail
      {
        OFFSET -6.47486 -3.86022 0
        CHANNELS 6 Xposition Yposition Zposition Zrotation Xrotation Yrotation
        JOINT Bip01_Spine0_Tail1
        {
          OFFSET 10.3837 -0.00825882 0
          CHANNELS 6 Xposition Yposition Zposition Zrotation Xrotation Yrotation
          JOINT Bip01_Spine0_Tail2
          {
            OFFSET 10.3837 -0.00826263 0
            CHANNELS 6 Xposition Yposition Zposition Zrotation Xrotation Yrotation
            JOINT Bip01_Spine0_Tail3
            {
              OFFSET 10.3837 -0.00825882 0
              CHANNELS 6 Xposition Yposition Zposition Zrotation Xrotation Yrotation
              JOINT Bip01_Spine0_Tail4
              {
                OFFSET 10.3837 -0.00826263 0
                CHANNELS 6 Xposition Yposition Zposition Zrotation Xrotation Yrotation
                End Site
                {
                  OFFSET 0 0 0
                }
              }
            }
          }
        }
      }
      JOINT Bip01_R_Thigh
      {
        OFFSET 0 -1.52588e-005 -8.75617
        CHANNELS 6 Xposition Yposition Zposition Zrotation Xrotation Yrotation
        JOINT Bip01_R_Calf
        {
          OFFSET 19.7638 0 0
          CHANNELS 6 Xposition Yposition Zposition Zrotation Xrotation Yrotation
          JOINT Bip01_R_Foot
          {
            OFFSET 18.6534 0 0
            CHANNELS 6 Xposition Yposition Zposition Zrotation Xrotation Yrotation
            JOINT Bip01_R_Toe0
            {
              OFFSET 5.09145 13.9567 0
              CHANNELS 6 Xposition Yposition Zposition Zrotation Xrotation Yrotation
              JOINT Bip01_R_Toe01
              {
                OFFSET 4.28803 0 0
                CHANNELS 6 Xposition Yposition Zposition Zrotation Xrotation Yrotation
                JOINT Bip01_R_Toe02
                {
                  OFFSET 3.85801 0 0
                  CHANNELS 6 Xposition Yposition Zposition Zrotation Xrotation Yrotation
                  End Site
                  {
                    OFFSET 0 0 0
                  }
                }
              }
            }
          }
        }
      }
      JOINT Bip01_L_Thigh
      {
        OFFSET 0 1.52588e-005 8.75617
        CHANNELS 6 Xposition Yposition Zposition Zrotation Xrotation Yrotation
        JOINT Bip01_L_Calf
        {
          OFFSET 19.7638 0 0
          CHANNELS 6 Xposition Yposition Zposition Zrotation Xrotation Yrotation
          JOINT Bip01_L_Foot
          {
            OFFSET 18.6534 0 0
            CHANNELS 6 Xposition Yposition Zposition Zrotation Xrotation Yrotation
            JOINT Bip01_L_Toe0
            {
              OFFSET 5.09144 13.9567 0
              CHANNELS 6 Xposition Yposition Zposition Zrotation Xrotation Yrotation
              JOINT Bip01_L_Toe01
              {
                OFFSET 4.28802 0 0
                CHANNELS 6 Xposition Yposition Zposition Zrotation Xrotation Yrotation
                JOINT Bip01_L_Toe02
                {
                  OFFSET 3.85801 0 0
                  CHANNELS 6 Xposition Yposition Zposition Zrotation Xrotation Yrotation
                  End Site
                  {
                    OFFSET 0 0 0
                  }
                }
              }
            }
          }
        }
      }
      JOINT Bip01_Spine
      {
        OFFSET 9.14835 -0.00640869 -1.1e-005
        CHANNELS 6 Xposition Yposition Zposition Zrotation Xrotation Yrotation
        JOINT Bip01_Spine1
        {
          OFFSET 8.04366 -0.00638199 0
          CHANNELS 6 Xposition Yposition Zposition Zrotation Xrotation Yrotation
          JOINT Bip01_Spine2
          {
            OFFSET 8.04367 -0.00639343 0
            CHANNELS 6 Xposition Yposition Zposition Zrotation Xrotation Yrotation
            JOINT Bip01_Spine3
            {
              OFFSET 8.04304 -0.00831222 0
              CHANNELS 6 Xposition Yposition Zposition Zrotation Xrotation Yrotation
              JOINT Bip01_Neck
              {
                OFFSET 10.6685 1.06813 0
                CHANNELS 6 Xposition Yposition Zposition Zrotation Xrotation Yrotation
                JOINT Bip01_R_Clavicle
                {
                  OFFSET -3.21661 -4.89635 -9.04802
                  CHANNELS 6 Xposition Yposition Zposition Zrotation Xrotation Yrotation
                  JOINT Bip01_R_UpperArm
                  {
                    OFFSET 19.0492 0 0
                    CHANNELS 6 Xposition Yposition Zposition Zrotation Xrotation Yrotation
                    JOINT Bip01_R_Forearm
                    {
                      OFFSET 10.3706 0 0
                      CHANNELS 6 Xposition Yposition Zposition Zrotation Xrotation Yrotation
                      JOINT Bip01_R_Hand
                      {
                        OFFSET 22.8632 0 0
                        CHANNELS 6 Xposition Yposition Zposition Zrotation Xrotation Yrotation
                        JOINT Bip01_R_Finger0
                        {
                          OFFSET 6.48259 0.103651 0.504496
                          CHANNELS 6 Xposition Yposition Zposition Zrotation Xrotation Yrotation
                          JOINT Bip01_R_Finger01
                          {
                            OFFSET 3.66847 0 0
                            CHANNELS 6 Xposition Yposition Zposition Zrotation Xrotation Yrotation
                            End Site
                            {
                              OFFSET 0 0 0
                            }
                          }
                        }
                      }
                    }
                  }
                }
                JOINT Bip01_L_Clavicle
                {
                  OFFSET -3.21661 -4.89641 9.04797
                  CHANNELS 6 Xposition Yposition Zposition Zrotation Xrotation Yrotation
                  JOINT Bip01_L_UpperArm
                  {
                    OFFSET 19.0492 0 0
                    CHANNELS 6 Xposition Yposition Zposition Zrotation Xrotation Yrotation
                    JOINT Bip01_L_Forearm
                    {
                      OFFSET 10.3706 0 0
                      CHANNELS 6 Xposition Yposition Zposition Zrotation Xrotation Yrotation
                      JOINT Bip01_L_Hand
                      {
                        OFFSET 22.8631 0 0
                        CHANNELS 6 Xposition Yposition Zposition Zrotation Xrotation Yrotation
                        JOINT Bip01_L_Finger0
                        {
                          OFFSET 6.48257 0.103655 -0.504492
                          CHANNELS 6 Xposition Yposition Zposition Zrotation Xrotation Yrotation
                          JOINT Bip01_L_Finger01
                          {
                            OFFSET 3.66844 0 0
                            CHANNELS 6 Xposition Yposition Zposition Zrotation Xrotation Yrotation
                            End Site
                            {
                              OFFSET 0 0 0
                            }
                          }
                        }
                      }
                    }
                  }
                }
                JOINT Bip01_Neck1
                {
                  OFFSET 7.52459 -0.00656509 0
                  CHANNELS 6 Xposition Yposition Zposition Zrotation Xrotation Yrotation
                  JOINT Bip01_Neck2
                  {
                    OFFSET 8.4783 -0.00588226 0
                    CHANNELS 6 Xposition Yposition Zposition Zrotation Xrotation Yrotation
                    JOINT Bip01_Head
                    {
                      OFFSET 8.41606 0 0
                      CHANNELS 6 Xposition Yposition Zposition Zrotation Xrotation Yrotation
                      JOINT EyesBlue
                      {
                        OFFSET 0 0 0
                        CHANNELS 6 Xposition Yposition Zposition Zrotation Xrotation Yrotation
                        JOINT EyesBlue_2
                        {
                          OFFSET 0 -0.500007 0
                          CHANNELS 6 Xposition Yposition Zposition Zrotation Xrotation Yrotation
                          End Site
                          {
                            OFFSET 0 0 0
                          }
                        }
                      }
                      JOINT Bip01_Head2_Eyeleds
                      {
                        OFFSET 6.52751 7.61746 2.2e-005
                        CHANNELS 6 Xposition Yposition Zposition Zrotation Xrotation Yrotation
                        End Site
                        {
                          OFFSET 0 0 0
                        }
                      }
                      JOINT Bip01_Head_Muzzle
                      {
                        OFFSET 2.88628 13.9448 3.88994
                        CHANNELS 6 Xposition Yposition Zposition Zrotation Xrotation Yrotation
                        End Site
                        {
                          OFFSET 0 0 0
                        }
                      }
                      JOINT Bip01_Head1_Jaw
                      {
                        OFFSET 0.271065 1.32405 0
                        CHANNELS 6 Xposition Yposition Zposition Zrotation Xrotation Yrotation
                        JOINT _Bip01_Head11_TungeControler
                        {
                          OFFSET 4.61616 5.82872 0
                          CHANNELS 6 Xposition Yposition Zposition Zrotation Xrotation Yrotation
                          JOINT _Bip01_Ponytail3_tunge
                          {
                            OFFSET 5.17785 2.98805 0
                            CHANNELS 6 Xposition Yposition Zposition Zrotation Xrotation Yrotation
                            JOINT Bip01_Ponytail31
                            {
                              OFFSET 5.57569 0 0
                              CHANNELS 6 Xposition Yposition Zposition Zrotation Xrotation Yrotation
                              JOINT Bip01_Ponytail32
                              {
                                OFFSET 2.93165 0 0
                                CHANNELS 6 Xposition Yposition Zposition Zrotation Xrotation Yrotation
                                JOINT Bip01_Ponytail3Nub
                                {
                                  OFFSET 3.30155 0 0
                                  CHANNELS 6 Xposition Yposition Zposition Zrotation Xrotation Yrotation
                                  End Site
                                  {
                                    OFFSET 0 0 0
                                  }
                                }
                              }
                            }
                          }
                        }
                        JOINT Bip01_Head_JawNub
                        {
                          OFFSET 15.5776 -0.000389099 0
                          CHANNELS 6 Xposition Yposition Zposition Zrotation Xrotation Yrotation
                          End Site
                          {
                            OFFSET 0 0 0
                          }
                        }
                      }
                      JOINT Bip01_Ponytail2
                      {
                        OFFSET 9.40334 1.03973 -6.51764
                        CHANNELS 6 Xposition Yposition Zposition Zrotation Xrotation Yrotation
                        JOINT Bip01_Ponytail21
                        {
                          OFFSET 2.77018 -0.00640106 1.33514e-005
                          CHANNELS 6 Xposition Yposition Zposition Zrotation Xrotation Yrotation
                          End Site
                          {
                            OFFSET 0 0 0
                          }
                        }
                      }
                      JOINT Bip01_Ponytail1
                      {
                        OFFSET 9.40368 1.03969 6.51768
                        CHANNELS 6 Xposition Yposition Zposition Zrotation Xrotation Yrotation
                        JOINT Bip01_Ponytail11
                        {
                          OFFSET 2.77018 -0.00640487 0
                          CHANNELS 6 Xposition Yposition Zposition Zrotation Xrotation Yrotation
                          End Site
                          {
                            OFFSET 0 0 0
                          }
                        }
                      }
                    }
                  }
                }
              }
            }
          }
        }
      }
    }
  }
}
MOTION
Frames:	4
Frame Time:	0.0333333
0 0 0 90 -44.9999 90 0.000814 -28.701 33.7481 90.0002 0.000164026 49.962 0 5.32907e-015 1e-006 -89.9999 -3.90908e-005 -81.2253 -6.39737 -3.85824 -0.987996 172.968 2.11016 12.4705 10.3839 -0.008079 0.001112 4.89693 3.96292 -0.34165 10.3829 -0.008113 -0.000817 -2.19007 -3.70476 -6.80929 10.3839 -0.00793 0.001581 4.38301 6.22779 -8.41536 10.3862 -0.007556 0.00069 21.3557 2.49467 -7.23677 1.1e-005 -1.1e-005 -8.75617 -102.184 0.625563 177.843 19.7638 -1e-006 -1e-006 -94.6908 8.47828e-005 -0.00209376 18.6534 -1e-006 3.55271e-015 -48.8828 1.47428 -3.62909 5.09143 13.9567 -5.03857e-008 70.3135 -2.78623 -4.15199 4.288 -1e-006 -3.19744e-014 19.8192 1.28157e-005 5.38714e-006 0 0 0 -45 -1.14558e-005 8.34479e-006 -1.3e-005 1.5e-005 8.75617 -152.48 5.9945 -163.53 19.7638 7e-006 -8.88178e-015 -125.922 0.000942513 -0.00298135 18.6534 3e-006 5.50671e-014 60.9777 3.73884 -1.10998 5.09143 13.9567 -5.13918e-007 54.0037 1.50817 4.76893 4.288 -1e-006 1e-006 -16.7728 0.00189684 0.00216936 3.85799 2.4869e-014 -1e-006 -45 -1.40397e-005 -1.08358e-005 9.03272 -0.006332 1.39436 0.0468458 -0.00591727 -8.77378 8.04366 -0.006393 3e-006 4.77083e-015 1.00179e-005 -0 8.04443 -0.005985 -0.001933 7.97681 -17.6416 0.0157092 8.04304 -0.008323 1.17813e-010 -4.29873 2.49648e-005 2.66745e-005 10.6685 1.06812 6.98187e-006 -13.2811 -2.50026e-005 3.21417e-005 -2.46762 -5.31289 -9.04801 -158.399 -74.4055 141.38 19.0492 -1.42109e-014 -7.10543e-015 103.954 64.1946 -127.087 10.3706 7.10543e-015 -7.10543e-015 -87.3186 4.76437e-005 0.00223411 22.8631 -3e-006 1e-006 7.63758 21.8742 -13.4695 6.48255 0.103655 0.504496 13.0212 -15.4844 0.648544 3.66844 -1e-006 7.10543e-015 40.107 -3.66108e-006 6.89422e-006 -2.46761 -5.31294 9.04798 -158.483 68.1703 -129.703 19.0492 3e-006 -3e-006 86.371 14.0768 86.0937 10.3706 -3e-006 3e-006 -75.1547 0.000492348 0.00359674 22.8631 3e-006 -2.0961e-013 30.4588 -3.27076 19.2474 6.48256 0.103653 -0.504492 43.5635 13.0996 -8.35766 3.66843 7e-006 3e-006 40.1071 1.64148e-005 -4.56462e-006 7.52508 -0.006662 0.000117 -19.9796 -0.0195373 -1.99796 8.47604 -0.006574 2.80002e-005 -2.47928 0.000835507 0.00105945 8.41604 -1e-006 3.19744e-014 -32.493 22.3052 19.5576 -2.13163e-013 3e-006 -3e-006 -23.1098 1.37701e-015 90 -2.3948e-006 -0.499998 1.05134e-007 38.6414 90 51.3586 6.5275 7.61746 2.285e-005 -104.487 7.01671e-015 -180 2.8863 13.9448 3.88994 -23.1099 1.37701e-015 90 0.271057 1.32405 3.97393e-006 -71.7784 6.10352e-005 -180 4.61616 5.82873 -8.30337e-006 -120.289 2.81041e-006 -2.57502e-006 5.17783 2.98806 3.93187e-006 133.74 2.45946e-006 9.43817e-007 5.57567 2.41585e-013 -4e-006 1.83152 -2.35382e-007 4.97391e-008 2.93164 -7e-006 -3e-006 -17.65 1.88371e-006 -4.00253e-007 3.30154 -7.10543e-014 4e-006 -26.1943 -2.98889e-007 -1.38678e-006 15.5776 -0.000396 -6.99998e-006 -5.96354e-016 -3.97569e-016 -3.18055e-015 9.40333 1.03972 -6.51764 -19.0867 17.2453 20.3009 2.77018 -0.006404 1.3e-005 2.43503 -1.80685e-005 -1.65482e-005 9.40367 1.03969 6.51768 -19.0868 -17.2453 -20.3008 2.77017 -0.006404 -9.00013e-006 2.43503 1.0334e-005 -3.20957e-007 
0 0 0 90 -42.7507 90 0.000814 -28.701 33.6608 90.0002 0.000164026 49.962 -7.10543e-015 -5.32907e-015 1e-006 -89.9999 3.76826e-005 -85.4245 -6.4472 -3.85824 -0.516643 172.966 3.41908 10.5925 10.3839 -0.008079 0.001112 4.84586 4.9916 0.885407 10.3829 -0.008113 -0.000817 -2.3407 -4.65212 -7.27562 10.3839 -0.00793 0.001581 4.56622 7.84124 -9.30273 10.3862 -0.007556 0.00069 21.4133 3.14267 -7.80659 1.1e-005 -1.1e-005 -8.75617 -103.234 -3.43264 176.901 19.7638 -1e-006 -1e-006 -99.8031 0.000178993 -0.00209378 18.6534 -1e-006 0 -49.302 1.76775 -3.49754 5.09143 13.9567 -8.44896e-008 70.0623 -2.76784 -4.16411 4.288 -1e-006 -3.01981e-014 19.471 1.30742e-005 5.51273e-006 0 0 0 -45 -1.19949e-005 8.06475e-006 -1.3e-005 1.5e-005 8.75617 -142.647 5.93487 -168.003 19.7638 7e-006 7.10543e-015 -111.208 0.000526209 -0.00297916 18.6534 3e-006 2.30926e-014 39.4443 3.82014 -0.0115023 5.09143 13.9567 -7.98261e-007 78.4137 3.34594 3.7192 4.288 -1e-006 1e-006 0.338084 0.00245597 0.00151466 3.85799 -4.26326e-014 -1e-006 -41.6632 -1.85088e-005 -1.34547e-005 9.10309 -0.006332 0.72866 0.0472896 -0.00248176 -4.57425 8.04366 -0.006393 3e-006 -6.36111e-015 1.00179e-005 -3.18055e-015 8.04443 -0.005985 -0.001933 7.97615 -15.591 0.0137113 8.04304 -0.008323 5.96643e-011 -4.29873 2.49636e-005 2.67045e-005 10.6685 1.06812 6.98934e-006 -13.2811 -2.4984e-005 3.22336e-005 -2.46762 -5.31289 -9.04801 -158.399 -73.7057 140.341 19.0492 7.10543e-015 0 123.12 73.3117 -143.147 10.3706 -1.42109e-014 -3.55271e-015 -65.0488 0.000463618 0.00224808 22.8631 -3e-006 1e-006 -18.866 14.025 -14.1362 6.48255 0.103655 0.504496 8.17829 -15.4845 -0.64428 3.66844 -1e-006 -3.55271e-014 40.107 -1.40986e-006 6.32759e-006 -2.46761 -5.31294 9.04798 -158.488 69.1265 -135.728 19.0492 3e-006 -3e-006 86.5071 35.065 87.95 10.3706 -3e-006 3e-006 -112.916 -0.00075031 0.00358426 22.8631 3e-006 -2.34479e-013 43.4927 -2.79226 20.2929 6.48257 0.103653 -0.504492 39.8827 13.5988 -7.50754 3.66843 7e-006 3e-006 40.1071 1.34938e-005 -4.93587e-006 7.52508 -0.006662 0.000117 -19.9275 -0.0212804 -1.99815 8.47604 -0.006574 2.80002e-005 -2.42749 0.000836469 0.00105871 8.41604 -1e-006 2.13163e-014 -31.7354 21.7434 17.4326 -2.13163e-013 3e-006 -3e-006 -23.1098 1.37701e-015 90 -2.39591e-006 -0.499998 1.04622e-007 38.8138 90 51.1862 6.5275 7.61746 2.28768e-005 -104.668 7.01671e-015 -180 2.8863 13.9448 3.88994 -23.1099 1.37701e-015 90 0.271057 1.32405 3.97859e-006 -71.7784 6.10352e-005 -180 4.61616 5.82873 -8.26323e-006 -120.289 2.58191e-006 -2.23429e-006 5.17783 2.98806 3.93341e-006 133.74 2.13326e-006 9.22521e-007 5.57567 2.13163e-013 -4e-006 1.83152 -2.14842e-007 3.99652e-008 2.93164 -7e-006 -3e-006 -17.65 1.76038e-006 -3.13805e-007 3.30154 -4.26326e-014 4e-006 -26.1943 -7.2591e-008 -1.21241e-006 15.5776 -0.000396 -6.99998e-006 1.98785e-015 -3.97569e-016 -0 9.40333 1.03972 -6.51764 -19.0867 17.2453 20.3009 2.77018 -0.006404 1.3e-005 2.43503 -1.80704e-005 -1.65476e-005 9.40367 1.03969 6.51768 -19.0868 -17.2453 -20.3008 2.77017 -0.006404 -9.00017e-006 2.43503 1.03402e-005 -3.36286e-007 
0 0 0 90 -40.5066 90 0.000814 -28.701 33.5674 90.0002 0.000164026 49.962 -7.10543e-015 0 1e-006 -89.9998 -5.37075e-006 -90.6897 -6.46886 -3.85824 0.0771719 173.189 4.74773 7.46568 10.3839 -0.008079 0.001112 4.77643 5.87657 2.07936 10.3829 -0.008113 -0.000817 -2.46923 -5.46749 -7.54602 10.3839 -0.00793 0.001581 4.73393 9.23067 -9.93862 10.3862 -0.007556 0.00069 21.4637 3.70116 -8.16411 1.1e-005 -1.1e-005 -8.75617 -104.334 -8.46999 175.533 19.7638 -1e-006 -1e-006 -105.537 0.000286168 -0.00209353 18.6534 -1e-006 -7.10543e-015 -49.4921 2.04686 -3.34272 5.09143 13.9567 -1.08196e-007 69.8057 -2.74889 -4.17636 4.288 -1e-006 -4.44089e-014 19.083 1.33372e-005 5.65438e-006 0 0 0 -45 -1.24716e-005 7.76251e-006 -1.3e-005 1.5e-005 8.75617 -130.488 4.41626 -172.979 19.7638 7e-006 0 -94.8834 0.000116318 -0.00296881 18.6534 3e-006 3.55271e-015 11.1073 3.53879 1.55484 5.09143 13.9567 -1.00568e-006 103.537 4.60688 1.94857 4.288 -1e-006 1e-006 18.2415 0.00280438 0.000686583 3.85799 -2.08722e-014 -1e-006 -35.1823 -1.77135e-005 -1.14489e-005 9.13358 -0.006332 -0.109942 0.0473178 0.00186821 0.690865 8.04366 -0.006393 3e-006 1.59027e-015 1.00179e-005 2.54444e-014 8.04443 -0.005985 -0.001933 7.97565 -11.959 0.0104499 8.04304 -0.008323 -1.98508e-011 -4.29873 2.49491e-005 2.67455e-005 10.6685 1.06812 6.99978e-006 -13.2811 -2.49862e-005 3.23624e-005 -2.46762 -5.31289 -9.04801 -158.396 -72.9409 139.341 19.0492 0 -2.13163e-014 136.107 78.4087 -152.838 10.3706 7.10543e-015 -7.10543e-015 -47.4034 0.000855936 0.00224778 22.8631 -3e-006 1e-006 -33.2428 6.12146 -18.3288 6.48255 0.103655 0.504496 2.81299 -15.3618 -2.07355 3.66844 -1e-006 -3.55271e-014 40.107 6.34632e-007 6.12979e-006 -2.46761 -5.31294 9.04798 -158.431 70.0751 -141.214 19.0492 3e-006 -3e-006 88.3751 34.2489 83.3254 10.3706 -3e-006 3e-006 -130.432 -0.00138518 0.00354517 22.8631 3e-006 1.3145e-013 52.8867 -2.7088 20.9668 6.48257 0.103653 -0.504492 35.9157 14.0742 -6.55846 3.66843 7e-006 3e-006 40.1071 1.113e-005 -4.72372e-006 7.52508 -0.006662 0.000117 -19.8291 -0.0245937 -1.99844 8.47604 -0.006574 2.80001e-005 -2.3294 0.000838287 0.00105729 8.41604 -1e-006 1.95399e-014 -30.4839 20.6701 13.712 -1.98952e-013 3e-006 -3e-006 -23.1098 1.37701e-015 90 -2.39764e-006 -0.499998 9.59532e-008 41.9406 90 48.0594 6.5275 7.61746 2.29078e-005 -104.849 7.01671e-015 -180 2.8863 13.9448 3.88994 -23.1099 1.37701e-015 90 0.271057 1.32405 3.98397e-006 -71.7784 6.10352e-005 -180 4.61616 5.82873 -8.21825e-006 -120.289 2.33018e-006 -1.85248e-006 5.17783 2.98806 3.93491e-006 133.74 1.74718e-006 9.01769e-007 5.57567 1.84741e-013 -4e-006 1.83152 -1.95061e-007 2.82604e-008 2.93164 -7e-006 -3e-006 -17.65 1.65091e-006 -2.08819e-007 3.30154 -5.68434e-014 4e-006 -26.1943 1.92266e-007 -1.01844e-006 15.5776 -0.000396 -6.99999e-006 4.41391e-032 7.95139e-016 -3.18055e-015 9.40333 1.03972 -6.51764 -19.0867 17.2453 20.3009 2.77018 -0.006404 1.3e-005 2.43503 -1.80677e-005 -1.65448e-005 9.40367 1.03969 6.51768 -19.0868 -17.2453 -20.3008 2.77017 -0.006404 -9.00023e-006 2.43503 1.0343e-005 -3.59144e-007 
0 0 0 90 -38.2725 90 0.000814 -28.701 33.4687 90.0002 0.000164026 49.962 7.10543e-015 1.77636e-015 1e-006 -90 2.2695e-005 -95.9696 -6.43979 -3.85824 0.672721 173.589 5.87322 3.93111 10.3839 -0.008079 0.001112 4.70294 6.52677 3.13733 10.3829 -0.008113 -0.000817 -2.54924 -6.06928 -7.57016 10.3839 -0.00793 0.001581 4.85135 10.256 -10.2336 10.3862 -0.007556 0.00069 21.4965 4.11278 -8.25205 1.1e-005 -1.1e-005 -8.75617 -105.521 -13.4836 173.975 19.7638 -1e-006 -1e-006 -110.523 0.000382375 -0.00209243 18.6534 -1e-006 0 -48.4603 2.2138 -3.23439 5.09143 13.9567 -1.11305e-007 69.6743 -2.73925 -4.18263 4.288 -1e-006 -2.84217e-014 18.8626 1.34807e-005 5.76109e-006 0 0 0 -45 -1.25455e-005 7.53846e-006 -1.3e-005 1.5e-005 8.75617 -121.001 1.08406 -176.67 19.7638 7e-006 -5.32907e-015 -85.5294 -0.000105075 -0.00296878 18.6534 3e-006 0 -10.7107 2.72004 2.79574 5.09143 13.9567 -9.47269e-007 107.906 4.74154 1.59235 4.288 -1e-006 1e-006 23.037 0.0028537 0.000449314 3.85799 -1.77636e-014 -1e-006 -31.9098 -1.90811e-005 -1.06305e-005 9.09241 -0.006332 -0.950974 0.0469722 0.00621748 5.97091 8.04366 -0.006393 3e-006 3.18056e-015 1.00179e-005 -5.725e-014 8.04443 -0.005985 -0.001933 7.97466 -7.18964 0.00614758 8.04304 -0.008323 -9.2796e-011 -4.29873 2.49179e-005 2.67832e-005 10.6685 1.06812 7.0097e-006 -13.2811 -2.50265e-005 3.24846e-005 -2.46762 -5.31289 -9.04801 -158.389 -72.1638 138.287 19.0492 -7.10543e-015 -7.10543e-015 106.981 77.3997 -120.899 10.3706 7.10543e-015 0 -40.6203 0.00102841 0.0022334 22.8631 -3e-006 1e-006 -32.9016 -0.961796 -22.7955 6.48255 0.103655 0.504496 -1.88654 -15.1485 -3.31265 3.66844 -1e-006 -2.84217e-014 40.107 6.12133e-007 5.96162e-006 -2.46761 -5.31294 9.04798 -158.385 70.8937 -144.469 19.0492 3e-006 -3e-006 86.9468 20.4481 84.9974 10.3706 -3e-006 3e-006 -133.615 -0.00151131 0.00354192 22.8631 3e-006 5.08038e-013 54.9358 -4.37663 21.3777 6.48257 0.103653 -0.504492 32.4826 14.432 -5.71296 3.66843 7e-006 3e-006 40.1071 7.16222e-006 -3.98287e-006 7.52508 -0.006662 0.000117 -19.6871 -0.0293715 -1.99887 8.47604 -0.006574 2.8e-005 -2.18733 0.000840914 0.00105523 8.41604 -1e-006 7.10543e-015 -29.0141 19.1295 8.91114 -1.56319e-013 3e-006 -3e-006 -23.1098 1.37701e-015 90 -2.39944e-006 -0.499998 7.69124e-008 -8.36756e-008 90 90 6.5275 7.61746 2.29402e-005 -105.03 7.01671e-015 -180 2.8863 13.9448 3.88994 -23.1098 1.37701e-015 90 0.271057 1.32405 3.98961e-006 -71.7784 6.10352e-005 -180 4.61616 5.82873 -8.17607e-006 -120.289 2.10067e-006 -1.49452e-006 5.17783 2.98806 3.93597e-006 133.74 1.38052e-006 8.87015e-007 5.57567 1.7053e-013 -4e-006 1.83152 -1.77806e-007 1.69929e-008 2.93164 -7e-006 -3e-006 -17.65 1.55955e-006 -1.07214e-007 3.30154 -1.42109e-014 4e-006 -26.1943 4.51526e-007 -8.37149e-007 15.5776 -0.000396 -6.99999e-006 3.18055e-015 -3.97569e-016 6.36111e-015 9.40333 1.03972 -6.51764 -19.0867 17.2453 20.3009 2.77018 -0.006404 1.3e-005 2.43503 -1.80625e-005 -1.65392e-005 9.40367 1.03969 6.51768 -19.0868 -17.2453 -20.3008 2.77017 -0.006404 -9.0003e-006 2.43503 1.03435e-005 -3.844e-007 
